<svg xmlns="http://www.w3.org/2000/svg" width="16" height="15" viewBox="0 0 16 15" fill="none">
    <path
        d="M6.25817 0.602569C6.9137 -0.200856 8.14133 -0.200856 8.7969 0.602569C9.20315 1.1005 9.86298 1.31491 10.4844 1.15088C11.487 0.886209 12.4802 1.60778 12.5382 2.64308C12.5742 3.28472 12.9821 3.84604 13.5812 4.07857C14.5478 4.45375 14.9272 5.62129 14.3657 6.49302C14.0177 7.03327 14.0177 7.72711 14.3657 8.26737C14.9272 9.13908 14.5478 10.3067 13.5812 10.6818C12.9821 10.9143 12.5742 11.4757 12.5382 12.1173C12.4802 13.1526 11.487 13.8742 10.4844 13.6095C9.86298 13.4455 9.20315 13.6599 8.7969 14.1578C8.14133 14.9613 6.9137 14.9613 6.25817 14.1578C5.85189 13.6599 5.19202 13.4455 4.57066 13.6095C3.56808 13.8742 2.5749 13.1526 2.51681 12.1173C2.4808 11.4757 2.07297 10.9143 1.47387 10.6818C0.507193 10.3067 0.127836 9.13908 0.689367 8.26737C1.03738 7.72711 1.03738 7.03327 0.689367 6.49302C0.127836 5.62129 0.507193 4.45375 1.47387 4.07857C2.07297 3.84604 2.4808 3.28472 2.51681 2.64308C2.5749 1.60778 3.56808 0.8862 4.57066 1.15088C5.19202 1.31491 5.85189 1.1005 6.25817 0.602569Z"
        fill="#37C0FB" />
    <path fill-rule="evenodd" clip-rule="evenodd"
        d="M11.1613 5.56574C11.3968 5.81809 11.3831 6.21358 11.1308 6.4491L7.41054 9.92131C7.16433 10.1511 6.7803 10.1445 6.54215 9.90639L4.31001 7.67422C4.06593 7.43013 4.06593 7.03441 4.31001 6.79033C4.55408 6.54625 4.94982 6.54625 5.19389 6.79033L6.99907 8.59547L10.2779 5.53528C10.5303 5.29976 10.9257 5.3134 11.1613 5.56574Z"
        fill="white" />
</svg>