<svg xmlns="http://www.w3.org/2000/svg" viewBox="0 0 64 64" width="50px" height="50px">
    <path fill="currentColor"
        d="M 32 8.0214844 C 30.8375 8.0214844 29.674641 8.5210781 28.869141 9.5175781 L 27.119141 11.683594 C 26.373141 12.606594 25.153813 13.001359 24.007812 12.693359 L 21.318359 11.970703 C 18.843359 11.304703 16.385906 13.091391 16.253906 15.650391 L 16.109375 18.431641 C 16.048375 19.616641 15.2955 20.654125 14.1875 21.078125 L 11.585938 22.074219 C 9.1919375 22.991219 8.2523906 25.881297 9.6503906 28.029297 L 11.169922 30.363281 C 11.816922 31.358281 11.816922 32.641719 11.169922 33.636719 L 9.6503906 35.970703 C 8.2533906 38.119703 9.1929375 41.009781 11.585938 41.925781 L 14.1875 42.921875 C 15.2955 43.345875 16.048375 44.383359 16.109375 45.568359 L 16.253906 48.349609 C 16.385906 50.908609 18.843359 52.694297 21.318359 52.029297 L 24.007812 51.306641 C 25.153813 50.998641 26.373141 51.393406 27.119141 52.316406 L 28.869141 54.482422 C 30.480141 56.475422 33.519859 56.475422 35.130859 54.482422 L 36.882812 52.316406 C 37.628813 51.393406 38.848141 50.998641 39.994141 51.306641 L 42.683594 52.029297 C 45.158594 52.695297 47.616047 50.908609 47.748047 48.349609 L 47.890625 45.568359 C 47.951625 44.383359 48.706453 43.345875 49.814453 42.921875 L 52.414062 41.925781 C 54.808063 41.008781 55.747609 38.118703 54.349609 35.970703 L 52.830078 33.636719 C 52.183078 32.641719 52.183078 31.358281 52.830078 30.363281 L 54.349609 28.029297 C 55.746609 25.880297 54.807063 22.990219 52.414062 22.074219 L 49.814453 21.078125 C 48.706453 20.654125 47.951625 19.616641 47.890625 18.431641 L 47.748047 15.650391 C 47.616047 13.091391 45.158594 11.305703 42.683594 11.970703 L 39.994141 12.693359 C 38.848141 13.001359 37.628813 12.606594 36.882812 11.683594 L 35.130859 9.5175781 C 34.325359 8.5210781 33.1625 8.0214844 32 8.0214844 z M 32 12.005859 C 32.336625 12.005859 32.67275 12.150953 32.90625 12.439453 L 34.339844 14.212891 C 35.831844 16.058891 38.272453 16.850375 40.564453 16.234375 L 42.765625 15.642578 C 43.482625 15.450578 44.194422 15.966031 44.232422 16.707031 L 44.349609 18.984375 C 44.472609 21.354375 45.978313 23.428344 48.195312 24.277344 L 50.324219 25.09375 C 51.017219 25.35875 51.289766 26.194406 50.884766 26.816406 L 49.642578 28.728516 C 48.348578 30.717516 48.348578 33.282484 49.642578 35.271484 L 50.884766 37.183594 C 51.289766 37.805594 51.017219 38.64125 50.324219 38.90625 L 48.195312 39.722656 C 45.978313 40.570656 44.471609 42.645625 44.349609 45.015625 L 44.232422 47.292969 C 44.194422 48.033969 43.482625 48.550422 42.765625 48.357422 L 40.564453 47.765625 C 38.272453 47.148625 35.831844 47.941109 34.339844 49.787109 L 32.90625 51.560547 C 32.44025 52.137547 31.56075 52.137547 31.09375 51.560547 L 29.660156 49.787109 C 28.168156 47.942109 25.7295 47.149625 23.4375 47.765625 L 21.236328 48.357422 C 20.519328 48.549422 19.807531 48.033969 19.769531 47.292969 L 19.652344 45.015625 C 19.529344 42.645625 18.021687 40.571656 15.804688 39.722656 L 13.675781 38.90625 C 12.982781 38.64125 12.710234 37.805594 13.115234 37.183594 L 14.359375 35.271484 C 15.653375 33.282484 15.653375 30.717516 14.359375 28.728516 L 13.115234 26.816406 C 12.710234 26.194406 12.982781 25.35875 13.675781 25.09375 L 15.804688 24.277344 C 18.021688 23.429344 19.530344 21.354375 19.652344 18.984375 L 19.769531 16.707031 C 19.807531 15.966031 20.519328 15.449578 21.236328 15.642578 L 23.4375 16.234375 C 25.7295 16.851375 28.168156 16.058891 29.660156 14.212891 L 31.09375 12.439453 C 31.32675 12.150953 31.663375 12.005859 32 12.005859 z M 39.371094 23.013672 C 38.729111 23.025801 38.106094 23.345781 37.730469 23.925781 L 29.457031 36.695312 L 26.091797 32.869141 C 25.361797 32.041141 24.098531 31.959453 23.269531 32.689453 C 22.440531 33.418453 22.359844 34.682719 23.089844 35.511719 L 28.199219 41.320312 C 28.581219 41.753312 29.129172 42 29.701172 42 C 29.749172 42 29.798656 41.998141 29.847656 41.994141 C 30.472656 41.948141 31.037906 41.612891 31.378906 41.087891 L 41.087891 26.101562 C 41.687891 25.174563 41.423094 23.936937 40.496094 23.335938 C 40.147344 23.110938 39.756283 23.006395 39.371094 23.013672 z" />
</svg>