<svg xmlns="http://www.w3.org/2000/svg" width="19" height="19" viewBox="0 0 19 19" fill="none">
    <path
        d="M7.85291 4.46883C7.70095 4.47128 7.55045 4.5313 7.43659 4.64916L3.13596 9.09068C2.91301 9.32076 2.91301 9.68629 3.13596 9.91637L7.43659 14.3579C7.55297 14.4781 7.7078 14.5388 7.86277 14.5388C8.01151 14.5388 8.16071 14.4829 8.27619 14.3712C8.51161 14.1432 8.51783 13.7671 8.28953 13.5316L4.96418 10.0973H15.4377C15.7655 10.0973 16.0315 9.83128 16.0315 9.50353C16.0315 9.17578 15.7655 8.90978 15.4377 8.90978H4.96418L8.28953 5.47542C8.51753 5.24 8.51161 4.86412 8.27619 4.63582C8.15833 4.52182 8.00488 4.46638 7.85291 4.46883Z"
        fill="currentColor" />
</svg>