<svg xmlns="http://www.w3.org/2000/svg" width="19" height="19" viewBox="0 0 19 19" fill="none">
    <path
        d="M9.49609 2.96875C5.88906 2.96875 2.96484 5.89297 2.96484 9.5C2.96484 13.107 5.88906 16.0312 9.49609 16.0312C13.1031 16.0312 16.0273 13.107 16.0273 9.5C16.0273 5.89297 13.1031 2.96875 9.49609 2.96875ZM9.49609 4.15625C12.4473 4.15625 14.8398 6.54877 14.8398 9.5C14.8398 12.4512 12.4473 14.8438 9.49609 14.8438C6.54486 14.8438 4.15234 12.4512 4.15234 9.5C4.15234 6.54877 6.54486 4.15625 9.49609 4.15625ZM12.157 6.64954C11.9663 6.65317 11.781 6.7485 11.6699 6.92032L8.78754 11.3694L7.27069 9.64438C7.05427 9.39857 6.67836 9.37432 6.43225 9.59103C6.18614 9.80775 6.1619 10.1831 6.37833 10.4295L8.41354 12.7424C8.52695 12.871 8.68962 12.9436 8.85944 12.9436C8.87369 12.9436 8.88838 12.9434 8.90292 12.9425C9.08847 12.9288 9.25628 12.8287 9.35751 12.6729L12.6666 7.56625C12.8448 7.29105 12.7661 6.92363 12.4909 6.74521C12.3874 6.67841 12.2713 6.64735 12.157 6.64954Z"
        fill="currentColor" />
</svg>