<svg xmlns="http://www.w3.org/2000/svg" width="20" height="21" viewBox="0 0 20 21" fill="none">
    <path
        d="M3.125 1.75C2.09473 1.75 1.25 2.59473 1.25 3.625V13.625C1.25 14.6553 2.09473 15.5 3.125 15.5H5V16.125C5 17.1553 5.84473 18 6.875 18H16.875C17.9053 18 18.75 17.1553 18.75 16.125V6.125C18.75 5.09473 17.9053 4.25 16.875 4.25H15V3.625C15 2.59473 14.1553 1.75 13.125 1.75H3.125ZM3.125 3H13.125C13.4766 3 13.75 3.27344 13.75 3.625V13.625C13.75 13.9766 13.4766 14.25 13.125 14.25H3.125C2.77344 14.25 2.5 13.9766 2.5 13.625V3.625C2.5 3.27344 2.77344 3 3.125 3ZM15 5.5H16.875C17.2266 5.5 17.5 5.77344 17.5 6.125V16.125C17.5 16.4766 17.2266 16.75 16.875 16.75H6.875C6.52344 16.75 6.25 16.4766 6.25 16.125V15.5H13.125C14.1553 15.5 15 14.6553 15 13.625V5.5Z"
        fill="currentColor" />
</svg>