<svg xmlns="http://www.w3.org/2000/svg" width="18" height="16" viewBox="0 0 18 16" fill="none">
    <path d="M8.99506 1C5.77794 1 3.04194 3.0295 1.97656 5.875H16.0132C14.9482 3.0295 12.2122 1 8.99506 1Z"
        fill="#010101" />
    <path
        d="M16.5 8.5C16.5 7.57487 16.3245 6.69325 16.0185 5.875H1.9815C1.6755 6.69325 1.5 7.57487 1.5 8.5C1.5 9.42513 1.6755 10.3067 1.9815 11.125H16.0181C16.3245 10.3067 16.5 9.42513 16.5 8.5Z"
        fill="#B10102" />
    <path d="M16.0136 11.125H1.97656C3.04194 13.9705 5.77794 16 8.99506 16C12.2122 16 14.9482 13.9705 16.0136 11.125Z"
        fill="#CFA702" />
</svg>