<svg width="52" height="52" viewBox="0 0 52 52" fill="none" xmlns="http://www.w3.org/2000/svg">
<rect width="51.9999" height="52" rx="16" fill="url(#paint0_radial_3665_2591)"/>
<path d="M27.5453 12.0898C27.4216 12.0898 27.298 12.1617 27.2581 12.3065L26.8197 13.8993C26.7149 14.28 26.425 14.5839 26.0475 14.7084L24.8195 15.1141C24.548 15.2038 24.548 15.5846 24.8195 15.6743L26.0475 16.0788C26.425 16.2033 26.7149 16.5073 26.8197 16.8879L27.2581 18.4807C27.3379 18.7705 27.7528 18.7705 27.8325 18.4807L28.2709 16.8879C28.3757 16.5073 28.6656 16.2033 29.0431 16.0788L30.27 15.6743C30.5415 15.5846 30.5415 15.2038 30.27 15.1141L29.0431 14.7084C28.6656 14.5839 28.3757 14.28 28.2709 13.8993L27.8325 12.3065C27.7926 12.1617 27.669 12.0898 27.5453 12.0898ZM16.3222 14.3027C15.2088 14.3027 14.162 14.7328 13.3755 15.5129C12.5633 16.3184 12.1567 17.376 12.1567 18.4335C12.1567 19.4915 12.5633 20.5497 13.3755 21.3552L31.0584 38.8797C31.8455 39.6598 32.8918 40.0898 34.0052 40.0898C35.1186 40.0898 36.166 39.6604 36.9519 38.8808C37.7641 38.0753 38.1695 37.0172 38.1695 35.9591C38.1695 34.9011 37.7641 33.844 36.9519 33.0386L19.269 15.5129C18.4819 14.7328 17.4356 14.3027 16.3222 14.3027ZM16.3222 16.6632C16.7997 16.6632 17.2481 16.8478 17.5851 17.1818L20.1121 19.6851L17.5851 22.1896L15.0593 19.6863C14.711 19.3411 14.5372 18.8873 14.5372 18.4335C14.5372 17.9797 14.7116 17.527 15.0593 17.1818C15.3969 16.8478 15.8459 16.6632 16.3222 16.6632ZM36.4763 18.5545C36.3532 18.5545 36.2307 18.6263 36.1902 18.77L35.6053 20.84C35.4987 21.2171 35.2106 21.5171 34.8355 21.641L33.1563 22.1954C32.8848 22.2851 32.8848 22.6658 33.1563 22.7555L34.8355 23.3099C35.21 23.4338 35.4987 23.735 35.6053 24.1121L36.1902 26.182C36.2712 26.4694 36.6826 26.4694 36.7635 26.182L37.3485 24.1121C37.4551 23.735 37.7432 23.4338 38.1183 23.3099L39.7964 22.7555C40.0679 22.6658 40.0679 22.2851 39.7964 22.1954L38.1183 21.641C37.7432 21.5171 37.4551 21.2171 37.3485 20.84L36.7635 18.77C36.7231 18.6263 36.5994 18.5545 36.4763 18.5545ZM21.796 21.354L35.2681 34.7063C35.6164 35.0515 35.7902 35.5053 35.7902 35.9591C35.7902 36.4129 35.6158 36.8656 35.2681 37.2108C34.9722 37.5041 34.5804 37.6692 34.1761 37.7052C33.6581 37.7513 33.1198 37.5861 32.7411 37.2108L19.269 23.8585L21.796 21.354ZM16.2327 29.7457C16.1101 29.7457 15.9877 29.8173 15.9466 29.9601L15.2175 32.4911C15.1085 32.8705 14.8141 33.1694 14.4349 33.2898L12.2068 33.9975C11.9311 34.0848 11.9311 34.4714 12.2068 34.5588L14.4349 35.2664C14.8135 35.3862 15.1079 35.6857 15.2175 36.0651L15.9466 38.5961C16.0294 38.8818 16.4366 38.8818 16.5188 38.5961L17.2514 36.0571C17.3597 35.6824 17.6473 35.3852 18.0201 35.2618L20.1481 34.5576C20.4196 34.4679 20.4196 34.0872 20.1481 33.9975L18.0201 33.2944C17.6467 33.1711 17.3597 32.8727 17.2514 32.4992L16.5188 29.9601C16.4774 29.8173 16.3553 29.7457 16.2327 29.7457Z" fill="white"/>
<defs>
<radialGradient id="paint0_radial_3665_2591" cx="0" cy="0" r="1" gradientUnits="userSpaceOnUse" gradientTransform="translate(26) rotate(90) scale(42.5 55.2517)">
<stop offset="0.107213" stop-color="#520C11"/>
<stop offset="1" stop-color="#7D1113" stop-opacity="0.7"/>
</radialGradient>
</defs>
</svg>
