<svg width="52" height="52" viewBox="0 0 52 52" fill="none" xmlns="http://www.w3.org/2000/svg">
<g clip-path="url(#clip0_3665_2583)">
<rect width="52" height="52" fill="url(#paint0_radial_3665_2583)"/>
<g filter="url(#filter0_b_3665_2583)">
<rect x="4" y="4" width="44" height="44" rx="12" fill="#D9D9D9" fill-opacity="0.1"/>
<rect x="4.675" y="4.675" width="42.65" height="42.65" rx="11.325" stroke="#E9E9E9" stroke-width="1.35"/>
</g>
<path d="M21.4297 15.0898C20.9612 15.0898 20.503 15.2212 20.1055 15.4697L16.4697 17.7422C16.1772 17.9247 16 18.2453 16 18.5898V33.0898C16 34.7443 17.3455 36.0898 19 36.0898H33C34.6545 36.0898 36 34.7443 36 33.0898V18.5898C36 18.2453 35.8228 17.9247 35.5303 17.7422L31.8945 15.4697C31.497 15.2212 31.0393 15.0898 30.5703 15.0898H21.4297ZM21.4297 17.0898H25V18.5898H18.8857L21.165 17.166C21.2445 17.1165 21.3357 17.0898 21.4297 17.0898ZM27 17.0898H30.5703C30.6638 17.0898 30.7555 17.116 30.835 17.165L33.1143 18.5898H27V17.0898ZM18 20.5898H34V33.0898C34 33.6413 33.5515 34.0898 33 34.0898H19C18.4485 34.0898 18 33.6413 18 33.0898V20.5898ZM23 22.0898C22.448 22.0898 22 22.5378 22 23.0898C22 23.6418 22.448 24.0898 23 24.0898H29C29.552 24.0898 30 23.6418 30 23.0898C30 22.5378 29.552 22.0898 29 22.0898H23Z" fill="#E9E9E9"/>
</g>
<defs>
<filter id="filter0_b_3665_2583" x="-12" y="-12" width="76" height="76" filterUnits="userSpaceOnUse" color-interpolation-filters="sRGB">
<feFlood flood-opacity="0" result="BackgroundImageFix"/>
<feGaussianBlur in="BackgroundImageFix" stdDeviation="8"/>
<feComposite in2="SourceAlpha" operator="in" result="effect1_backgroundBlur_3665_2583"/>
<feBlend mode="normal" in="SourceGraphic" in2="effect1_backgroundBlur_3665_2583" result="shape"/>
</filter>
<radialGradient id="paint0_radial_3665_2583" cx="0" cy="0" r="1" gradientUnits="userSpaceOnUse" gradientTransform="translate(26 26) scale(39.5 39.4998)">
<stop offset="0.107213" stop-color="#520C11"/>
<stop offset="1" stop-color="#7D1119" stop-opacity="0.4"/>
</radialGradient>
<clipPath id="clip0_3665_2583">
<rect width="51.9999" height="52" rx="16" fill="white"/>
</clipPath>
</defs>
</svg>
