<svg xmlns="http://www.w3.org/2000/svg" width="18" height="16" viewBox="0 0 18 16" fill="none">
    <path d="M7.12237 0.746094C5.60175 1.13834 4.26787 1.98959 3.28125 3.15097L7.12237 5.49922V0.746094Z"
        fill="#143173" />
    <path d="M3.22656 12.7851C4.21806 13.9795 5.57594 14.8532 7.12469 15.253V10.4023L3.22656 12.7851Z" fill="#143173" />
    <path d="M1.75 9.875C1.75488 9.8945 1.75975 9.91363 1.765 9.93313L1.8595 9.875H1.75Z" fill="#FBFBFB" />
    <path d="M14.841 3.30097C13.8435 2.06309 12.4605 1.15484 10.875 0.746094V5.72497L14.841 3.30097Z" fill="#143173" />
    <path d="M10.875 15.2533C12.4886 14.837 13.8904 13.9022 14.8916 12.6305L10.875 10.1758V15.2533Z" fill="#143173" />
    <path d="M1.78637 5.98438C1.77325 6.03125 1.762 6.07925 1.75 6.1265H2.01888L1.78637 5.98438Z" fill="#FBFBFB" />
    <path d="M16.4034 6.87644C16.3678 6.64019 16.3216 6.40806 16.2646 6.17969L15.125 6.87644H16.4034Z" fill="#FBFBFB" />
    <path d="M2.01525 6.125H1.74638C1.683 6.37062 1.63238 6.62037 1.59375 6.875H3.24225L2.01525 6.125Z"
        fill="#FBFBFB" />
    <path d="M16.2888 9.73587C16.3364 9.53525 16.3743 9.33125 16.4054 9.125H15.2891L16.2888 9.73587Z" fill="#FBFBFB" />
    <path d="M3.08288 9.125H1.59375C1.632 9.37963 1.683 9.62937 1.74638 9.875H1.85625L3.08288 9.125Z" fill="#FBFBFB" />
    <path d="M7.875 5.95775V0.59375C7.62037 0.632 7.37062 0.683 7.125 0.746375V5.4995L7.875 5.95775Z" fill="#FBFBFB" />
    <path d="M10.125 9.71875V15.4071C10.3796 15.3689 10.6294 15.3179 10.875 15.2545V10.177L10.125 9.71875Z"
        fill="#FBFBFB" />
    <path d="M7.125 10.4036V15.2538C7.37062 15.3172 7.62037 15.3678 7.875 15.4064V9.94531L7.125 10.4036Z"
        fill="#FBFBFB" />
    <path
        d="M10.1944 6.01062L10.3009 6.07587L10.875 5.72487V0.746375C10.6294 0.683 10.3796 0.632375 10.125 0.59375V6.12425L10.1944 6.01062Z"
        fill="#FBFBFB" />
    <path
        d="M3.24113 6.87647H6.76237L7.87425 6.19697V5.95922L7.12425 5.50059L3.28313 3.15234C2.96288 3.52959 2.67825 3.93759 2.43638 4.37372L5.268 6.12647H3.222L1.98713 5.35884C1.90988 5.56359 1.84087 5.77172 1.78125 5.98434L2.01413 6.12647L3.24113 6.87647Z"
        fill="#FBFBFB" />
    <path
        d="M10.2969 6.07541L11.6049 6.87491H15.1242L16.2639 6.17816C16.142 5.69066 15.9733 5.22303 15.761 4.77866L13.6003 6.12491H11.5543L15.2337 3.83741C15.1096 3.65216 14.9761 3.47403 14.8366 3.30078L10.871 5.72441L10.2969 6.07541Z"
        fill="#FBFBFB" />
    <path d="M5.27269 6.12384L2.44144 4.37109C2.26706 4.68572 2.12044 5.01609 1.99219 5.35622L3.22669 6.12384H5.27269Z"
        fill="#CA203B" />
    <path d="M13.6007 6.12697L15.7618 4.78072C15.6062 4.45447 15.4341 4.13797 15.2346 3.83984L11.5547 6.12697H13.6007Z"
        fill="#CA203B" />
    <path
        d="M10.125 9.125V9.71825L10.875 10.1765L14.8916 12.6316C15.1811 12.2638 15.4376 11.8692 15.6551 11.4504L13.1141 9.875H15.1601L16.0823 10.4503C16.1629 10.217 16.2322 9.97925 16.2896 9.73625L15.2902 9.125H10.125Z"
        fill="#FBFBFB" />
    <path d="M11.6089 6.87647L10.3009 6.07697L10.1944 6.01172L10.125 6.12534V6.87647H11.6089Z" fill="#FBFBFB" />
    <path
        d="M7.87219 9.9455V9.125H3.07969L1.85269 9.875L1.75781 9.93313C1.88981 10.4285 2.06981 10.9033 2.29519 11.3529L4.62056 9.875H6.66656L2.84831 12.2874C2.96756 12.4584 3.09131 12.6264 3.22406 12.7865L7.12219 10.4037L7.87219 9.9455Z"
        fill="#FBFBFB" />
    <path d="M6.76562 6.87481H7.8775V6.19531L6.76562 6.87481Z" fill="#FBFBFB" />
    <path d="M13.1172 9.875L15.6578 11.45C15.8243 11.1298 15.9657 10.7953 16.0853 10.4499L15.1632 9.875H13.1172Z"
        fill="#CA203B" />
    <path d="M4.62225 9.875L2.29688 11.3529C2.46 11.6784 2.643 11.9911 2.85 12.2874L6.66825 9.875H4.62225Z"
        fill="#CA203B" />
    <path
        d="M11.6089 6.875H10.125V9.125H15.2902H16.4066C16.4621 8.75713 16.5 8.38325 16.5 8C16.5 7.61675 16.4621 7.24288 16.4066 6.875H15.1282H11.6089Z"
        fill="#CA203B" />
    <path
        d="M7.875 9.125V6.875H6.76312H3.24188H1.59338C1.53788 7.24288 1.5 7.61675 1.5 8C1.5 8.38325 1.53788 8.75713 1.59338 9.125H3.0825H7.875Z"
        fill="#CA203B" />
    <path
        d="M10.125 15.4066V9.71825V9.125V6.875V6.12387V0.593375C9.75713 0.537875 9.38325 0.5 9 0.5C8.61675 0.5 8.24288 0.537875 7.875 0.593375V5.95737V6.19512V6.875V9.125V9.9455V15.4066C8.24288 15.4621 8.61675 15.5 9 15.5C9.38325 15.5 9.75713 15.4621 10.125 15.4066Z"
        fill="#CA203B" />
</svg>