<svg width="52" height="52" viewBox="0 0 52 52" fill="none" xmlns="http://www.w3.org/2000/svg">
<rect width="51.9999" height="52" rx="16" fill="url(#paint0_radial_3665_2577)"/>
<path d="M14.5983 16.0924C14.5049 16.0986 14.4118 16.1158 14.321 16.1456C13.9564 16.2648 13.6832 16.5589 13.5981 16.9214C11.9601 23.8946 13.9954 28.2419 15.9903 30.6609C18.7205 33.9711 23.1744 35.869 28.21 35.869C30.7505 35.869 33.0498 34.8564 34.7045 33.2284C35.4984 34.8856 35.6396 36.5017 35.7241 36.8505C35.9335 37.7138 36.827 38.2496 37.7192 38.047C38.6114 37.8444 39.1651 36.9798 38.9557 36.1164C38.5041 34.2555 37.7554 32.3621 36.4686 30.758C37.0129 29.6285 37.3254 28.3746 37.3254 27.0483C37.3254 22.1846 33.2361 18.2276 28.21 18.2276C26.6322 18.2276 25.2682 18.3616 24.0655 18.4803C20.7144 18.809 18.6931 19.0075 15.3828 16.3377C15.1615 16.1593 14.8787 16.0737 14.5983 16.0924ZM15.4302 19.0399C18.7289 21.1515 21.3327 20.8979 24.2878 20.6071C25.4954 20.4884 26.7438 20.3659 28.21 20.3659C32.018 20.3659 35.1156 23.3634 35.1156 27.0483C35.1156 27.7647 34.9955 28.4536 34.7789 29.101C33.7859 28.3357 32.5775 27.6914 31.065 27.1934C29.1452 26.5605 27.2288 26.2994 25.4488 25.8862C24.5627 25.6766 23.7107 25.4234 22.9682 25.0342C21.7417 24.3895 21.299 23.4367 21.2504 23.3479C21.1228 23.1095 20.8282 22.9959 20.5631 23.0932C20.2774 23.198 20.1343 23.507 20.2426 23.7833C20.6194 24.744 21.3594 25.6004 22.2334 26.166C23.1073 26.7375 24.0525 27.1093 24.9762 27.4242C26.8274 28.0379 28.6475 28.4709 30.2568 29.1835C31.5238 29.73 32.6196 30.4585 33.4647 31.373C32.1971 32.8131 30.3136 33.7306 28.21 33.7306C23.85 33.7306 20.0259 32.1251 17.7167 29.3266C15.5682 26.7215 14.7889 23.1899 15.4302 19.0399Z" fill="white"/>
<defs>
<radialGradient id="paint0_radial_3665_2577" cx="0" cy="0" r="1" gradientUnits="userSpaceOnUse" gradientTransform="translate(26 52) scale(61 60.9998)">
<stop offset="0.107213" stop-color="#520C11"/>
<stop offset="1" stop-color="#7D1119" stop-opacity="0.7"/>
</radialGradient>
</defs>
</svg>
