<svg xmlns="http://www.w3.org/2000/svg" width="83" height="36" viewBox="0 0 83 36" fill="none">
    <path
        d="M82.3668 27.3839C82.4471 27.4277 82.5638 27.4642 82.7243 27.508H76.9894L77.3104 27.4277C77.7482 27.2597 78.0328 26.9677 78.1933 26.5879C78.31 26.2959 78.3903 25.8796 78.3903 25.3758V2.76075C78.3903 2.13276 78.2735 1.67272 78.0692 1.38063C77.9087 1.13236 77.5074 0.876778 76.8653 0.672316L76.5078 0.548178L81.1629 0.0078125L81.2067 25.1348C81.2067 25.719 81.2432 26.1352 81.4037 26.5149C81.5642 26.8946 81.8852 27.1429 82.3668 27.3912V27.3839Z"
        fill="currentColor" />
    <path
        d="M13.6369 26.0492C13.2721 26.3267 12.8708 26.5677 12.3965 26.7721C11.2729 27.2541 9.98873 27.5754 8.50757 27.5754C6.90236 27.5754 5.37742 27.2103 4.13704 26.4508C2.89666 25.6914 1.88976 24.6034 1.13094 23.2379C0.364818 21.8723 0 20.2658 0 18.4622C0 16.6585 0.4013 15.1689 1.16742 13.8107C1.92624 12.4452 3.04988 11.4009 4.37782 10.5977C5.69846 9.79445 7.31096 9.3125 9.0329 9.3125C10.4411 9.3125 12.039 9.6557 12.9219 10.3129C12.703 10.145 11.0394 9.55347 9.8355 9.55347C8.4346 9.55347 7.2307 9.87477 6.18732 10.5977C5.18772 11.2768 4.38512 12.2407 3.8233 13.4894C3.30525 14.6942 3.0207 16.0963 3.0207 17.659C3.0207 19.5064 3.37822 21.1129 4.0203 22.4784C4.66238 23.8439 5.58172 24.8882 6.70536 25.6038C7.829 26.3267 9.11316 26.6918 10.4703 26.6918C11.5939 26.6918 12.557 26.3997 13.4399 26.1295C13.5348 26.1003 13.5639 26.093 13.6369 26.0492Z"
        fill="currentColor" />
    <path
        d="M58.3746 25.3481V12.2771C58.3746 11.6272 58.2579 11.2182 58.0536 10.9335C57.8566 10.6487 57.4918 10.4442 56.8497 10.2397L56.4922 10.1156L61.067 9.58984C61.1473 9.58984 61.1838 9.67017 61.1838 9.71398V25.3481C61.1838 26.1659 61.3808 26.7355 61.7456 27.0568C61.9426 27.2174 62.2271 27.3854 62.6284 27.5022H56.9373C57.3386 27.3781 57.6158 27.2174 57.7763 27.0568C58.1339 26.6917 58.3746 26.1586 58.3746 25.3481Z"
        fill="currentColor" />
    <path
        d="M73.6298 26.73C74.4324 26.73 75.1547 26.6132 75.7968 26.3722C75.6363 26.4525 75.4757 26.6132 75.3152 26.6935C74.2718 27.212 73.1117 27.5771 71.864 27.5771C70.6237 27.5771 69.4198 27.2193 68.3326 26.5329C67.2527 25.8538 66.3699 24.8461 65.684 23.5243C65.0054 22.2026 64.6406 20.5523 64.6406 18.6246C64.6406 16.6968 65.0419 15.1341 65.7643 13.7686C66.5231 12.3665 67.53 11.242 68.8141 10.5191C70.0983 9.79615 71.4992 9.39453 73.0679 9.39453C73.7465 9.39453 74.3886 9.47486 74.9504 9.6355C74.6294 9.59899 74.2718 9.55518 73.907 9.55518C72.0246 9.55518 70.4996 10.3949 69.3322 12.0014C68.2086 13.5641 67.6102 15.6525 67.6102 18.1791C67.6102 20.7057 68.2086 22.7576 69.2957 24.3203C70.4194 25.9268 71.864 26.73 73.6298 26.73Z"
        fill="currentColor" />
    <path
        d="M30.0919 21.6654L30.07 21.6873V11.3984C30.07 10.9895 29.9459 10.6901 29.7489 10.5002C29.5884 10.3396 29.1871 10.1716 28.545 10.0402L28.1875 9.95988L32.8353 9.60938L32.8499 15.495C32.8499 17.8536 31.8576 20.1173 30.0919 21.68V21.6654Z"
        fill="currentColor" />
    <path
        d="M55.0063 18.3433C55.0063 20.3222 53.9264 27.5733 46.5863 27.5733C45.8275 27.5733 45.1416 27.4929 44.4995 27.2958C44.9008 27.3761 45.3021 27.4199 45.7034 27.4199C53.423 27.4199 53.7367 15.6049 50.3585 12.6548C46.9657 9.6901 43.6313 10.6394 41.2235 12.1948C40.0415 12.9542 39.0856 13.8597 38.4436 14.5242C38.4144 14.5461 38.3925 14.5753 38.3706 14.5972C36.9624 16.0723 34.7881 18.8106 33.5915 20.1907C33.1245 20.7311 32.8691 21.4248 32.8691 22.1404V24.4406V25.9668C32.8691 26.3465 32.9056 26.6167 33.0661 26.865C33.2267 27.1132 33.5477 27.2739 34.0293 27.4345C34.1095 27.4637 34.2263 27.4856 34.3941 27.5149H28.6591L28.9802 27.4564C29.418 27.3469 29.7025 27.157 29.863 26.9088C29.9871 26.7189 30.06 26.4487 30.06 26.1201V23.9222C25.0109 28.1574 20.8958 27.4199 19.5095 26.2443C18.4661 25.3607 17.9481 24.039 17.9481 22.1915V12.2386C17.9481 11.596 17.8313 11.1944 17.6708 10.9169C17.5103 10.6394 17.109 10.4349 16.4669 10.2378L16.1094 10.1136L20.8009 9.59518V21.4321C20.8009 23.1554 21.2022 24.4406 22.0413 25.368C22.6907 26.0763 25.2736 26.9745 28.163 25.0686C28.7394 24.6889 29.3596 24.2435 30.0673 23.6155C30.8699 22.9071 31.782 21.9579 32.8545 20.6069C33.3945 19.9205 36.4589 16.4666 37.7942 14.2248C37.9766 13.9181 38.1371 13.6041 38.2539 13.2755C38.3706 12.9469 38.4436 12.6037 38.4436 12.2532C38.4436 11.8808 38.3998 11.5668 38.3122 11.3185C38.2611 11.1652 38.1955 11.0337 38.1225 10.9315C37.962 10.6905 37.5607 10.4495 36.9186 10.2524L36.5611 10.1282L40.3406 9.70471L41.2089 9.60978V10.9461C43.5218 9.41262 45.8786 8.95258 48.4834 9.44913C49.9207 9.71931 55.0063 10.9096 55.0063 18.3579V18.3433Z"
        fill="currentColor" />
    <path
        d="M42.7662 35.9945H37.0312L37.3523 35.9142C37.7901 35.7536 38.0746 35.4761 38.2351 35.111C38.3592 34.8335 38.4322 34.4319 38.4322 33.9499V19.5353C38.4322 17.4761 39.4463 15.541 41.1756 14.4164C41.1902 14.4091 41.1975 14.4018 41.2121 14.3945L41.2413 33.7089C41.2413 34.2712 41.285 34.6728 41.4383 35.0306C41.5988 35.3885 41.9198 35.6294 42.4014 35.8777C42.4816 35.9142 42.5984 35.958 42.7589 35.9945H42.7662Z"
        fill="currentColor" />
    <path
        d="M60.2824 5.9423L58.1226 6.15407C58.1226 6.15407 57.911 4.01451 57.9037 3.99261C57.8454 3.39382 58.2759 2.86806 58.8742 2.80234C59.4579 2.74393 59.9759 3.16015 60.0562 3.73703V3.78084H60.0999C60.6764 3.74433 61.1871 4.17516 61.2455 4.75934C61.3038 5.35812 60.8661 5.88389 60.2751 5.94961L60.2824 5.9423Z"
        fill="currentColor" />
    <path
        d="M13.4905 12.9012C13.4905 13.7409 12.8119 14.4273 11.9655 14.4273C11.1265 14.4273 10.4844 13.7482 10.4844 12.9012C10.4844 12.0541 11.1265 11.375 11.9655 11.375C12.8046 11.375 13.4905 12.0541 13.4905 12.9012Z"
        fill="currentColor" />
</svg>