<svg xmlns="http://www.w3.org/2000/svg" width="31" height="31" viewBox="0 0 31 31" fill="none">
    <path
        d="M15.125 0C6.77188 0 0 6.77188 0 15.125C0 23.4781 6.77188 30.25 15.125 30.25C23.4781 30.25 30.25 23.4781 30.25 15.125C30.25 6.77188 23.4781 0 15.125 0ZM15.125 2.75C21.9594 2.75 27.5 8.29056 27.5 15.125C27.5 21.9594 21.9594 27.5 15.125 27.5C8.29056 27.5 2.75 21.9594 2.75 15.125C2.75 8.29056 8.29056 2.75 15.125 2.75ZM10.6562 9.625C9.70681 9.625 8.9375 10.5483 8.9375 11.6875C8.9375 12.8267 9.70681 13.75 10.6562 13.75C11.6057 13.75 12.375 12.8267 12.375 11.6875C12.375 10.5483 11.6057 9.625 10.6562 9.625ZM19.5938 9.625C18.6443 9.625 17.875 10.5483 17.875 11.6875C17.875 12.8267 18.6443 13.75 19.5938 13.75C20.5432 13.75 21.3125 12.8267 21.3125 11.6875C21.3125 10.5483 20.5432 9.625 19.5938 9.625ZM10.2185 18.7169C10.0268 18.7109 9.87595 18.7668 9.76599 18.9143C9.05993 19.861 11.5741 22.6875 15.125 22.6875C18.6759 22.6875 21.1901 19.861 20.484 18.9143C19.8976 18.1278 18.1624 19.9375 15.125 19.9375C12.6571 19.9375 11.0492 18.743 10.2185 18.7169Z"
        fill="#E9E9E9" />
</svg>