<svg xmlns="http://www.w3.org/2000/svg" width="40" height="40" viewBox="0 0 40 40" fill="none">
    <mask id="path-1-inside-1_4454_3804" fill="white">
        <path
            d="M40 20C40 31.0457 31.0457 40 20 40C8.9543 40 0 31.0457 0 20C0 8.9543 8.9543 0 20 0C31.0457 0 40 8.9543 40 20ZM1.1934 20C1.1934 30.3866 9.6134 38.8066 20 38.8066C30.3866 38.8066 38.8066 30.3866 38.8066 20C38.8066 9.6134 30.3866 1.1934 20 1.1934C9.6134 1.1934 1.1934 9.6134 1.1934 20Z" />
    </mask>
    <path
        d="M40 20C40 31.0457 31.0457 40 20 40C8.9543 40 0 31.0457 0 20C0 8.9543 8.9543 0 20 0C31.0457 0 40 8.9543 40 20ZM1.1934 20C1.1934 30.3866 9.6134 38.8066 20 38.8066C30.3866 38.8066 38.8066 30.3866 38.8066 20C38.8066 9.6134 30.3866 1.1934 20 1.1934C9.6134 1.1934 1.1934 9.6134 1.1934 20Z"
        stroke="#520C11" stroke-width="3.63636" mask="url(#path-1-inside-1_4454_3804)" />
    <circle cx="20" cy="20" r="20" fill="#590D12" fill-opacity="0.2" />
    <path
        d="M15.2 12.168C12.3328 12.168 10 14.5271 10 17.4267C10 22.6766 18.6191 28.0073 18.9859 28.2318C19.1131 28.3099 19.2568 28.3487 19.4 28.3487C19.5432 28.3487 19.6869 28.3095 19.8141 28.2318C19.9322 28.1595 20.9245 27.5353 22.1914 26.5766C23.3221 27.8003 24.7696 28.6041 25.0273 28.7414C25.1441 28.8033 25.272 28.8346 25.4 28.8346C25.528 28.8346 25.6559 28.8033 25.7727 28.7414C26.2055 28.5112 30 26.4095 30 23.5759C30 22.2047 29.0307 21.0586 27.7492 20.7996C28.3886 19.7065 28.8 18.5652 28.8 17.4267C28.8 14.5271 26.4672 12.168 23.6 12.168C21.8976 12.168 20.3576 12.9889 19.4 14.3186C18.4424 12.9893 16.9024 12.168 15.2 12.168ZM15.2 13.786C16.7832 13.786 18.1647 14.8121 18.6367 16.3388C18.7415 16.6766 19.05 16.9068 19.4 16.9068C19.75 16.9068 20.0585 16.6766 20.1633 16.3388C20.6353 14.8117 22.0168 13.786 23.6 13.786C25.5852 13.786 27.2 15.4195 27.2 17.4267C27.2 18.7063 26.45 20.0884 25.3828 21.4024C24.8885 20.9867 24.2594 20.7443 23.6 20.7443C22.0564 20.7443 20.8 22.0144 20.8 23.5759C20.8 24.18 20.9791 24.748 21.2547 25.2745C20.5653 25.8001 19.9222 26.2477 19.4 26.5861C16.8872 24.9587 11.6 20.8287 11.6 17.4267C11.6 15.4195 13.2148 13.786 15.2 13.786ZM23.6 22.3623C24.0624 22.3623 24.4753 22.6284 24.6781 23.0576C24.8109 23.3391 25.0916 23.5182 25.4 23.5182C25.7084 23.5182 25.9891 23.3387 26.1219 23.0576C26.3247 22.6288 26.7376 22.3623 27.2 22.3623C27.8616 22.3623 28.4 22.9068 28.4 23.5759C28.4 24.9646 26.4596 26.4428 25.4 27.0941C24.3404 26.4424 22.4 24.9646 22.4 23.5759C22.4 22.9068 22.9384 22.3623 23.6 22.3623Z"
        fill="white" />
</svg>