<svg width="60" height="26" viewBox="0 0 60 26" fill="none" xmlns="http://www.w3.org/2000/svg">
<g clip-path="url(#clip0_3986_1138)">
<path d="M59.4971 19.7755C59.5551 19.8072 59.6394 19.8335 59.7553 19.8652H55.6134L55.8453 19.8072C56.1615 19.6859 56.367 19.4749 56.4829 19.2007C56.5672 18.9897 56.6252 18.6891 56.6252 18.3252V1.99214C56.6252 1.53859 56.5409 1.20634 56.3933 0.995387C56.2774 0.816077 55.9876 0.631493 55.5238 0.483825L55.2656 0.39417L58.6276 0.00390625L58.6593 18.1512C58.6593 18.5731 58.6856 18.8737 58.8015 19.1479C58.9175 19.4222 59.1493 19.6015 59.4971 19.7808V19.7755Z" fill="#86868A"/>
<path d="M9.85669 18.8103C9.59321 19.0107 9.30338 19.1847 8.96086 19.3324C8.14934 19.6805 7.22189 19.9125 6.15216 19.9125C4.99285 19.9125 3.89151 19.6488 2.99568 19.1003C2.09984 18.5519 1.37264 17.7661 0.8246 16.7799C0.271292 15.7936 0.0078125 14.6334 0.0078125 13.3308C0.0078125 12.0281 0.29764 10.9523 0.850948 9.97134C1.39899 8.98513 2.2105 8.23097 3.16957 7.65085C4.12337 7.07073 5.28795 6.72266 6.53158 6.72266C7.54861 6.72266 8.70265 6.97053 9.34027 7.44517C9.18218 7.32387 7.98072 6.89669 7.11123 6.89669C6.09947 6.89669 5.22998 7.12874 4.47643 7.65085C3.7545 8.14132 3.17484 8.83746 2.76908 9.73929C2.39494 10.6095 2.18943 11.622 2.18943 12.7506C2.18943 14.0849 2.44764 15.2452 2.91136 16.2314C3.37509 17.2176 4.03906 17.9717 4.85057 18.4886C5.66209 19.0107 6.58954 19.2744 7.56969 19.2744C8.38121 19.2744 9.07679 19.0634 9.71441 18.8683C9.78292 18.8472 9.804 18.8419 9.85669 18.8103Z" fill="#86868A"/>
<path d="M42.1721 18.3067V8.86655C42.1721 8.39718 42.0877 8.10185 41.9402 7.89617C41.7979 7.69049 41.5344 7.54282 41.0707 7.39515L40.8125 7.3055L44.1165 6.92578C44.1745 6.92578 44.2009 6.98379 44.2009 7.01544V18.3067C44.2009 18.8974 44.3431 19.3087 44.6066 19.5408C44.7489 19.6568 44.9544 19.7781 45.2442 19.8625H41.1339C41.4238 19.7728 41.624 19.6568 41.7399 19.5408C41.9982 19.2771 42.1721 18.8921 42.1721 18.3067Z" fill="#86868A"/>
<path d="M53.1875 19.3013C53.7671 19.3013 54.2888 19.217 54.7525 19.0429C54.6366 19.1009 54.5207 19.2169 54.4047 19.275C53.6512 19.6494 52.8133 19.9131 51.9122 19.9131C51.0164 19.9131 50.1469 19.6547 49.3617 19.1589C48.5818 18.6685 47.9442 17.9407 47.4489 16.9861C46.9588 16.0316 46.6953 14.8397 46.6953 13.4474C46.6953 12.0551 46.9851 10.9265 47.5068 9.94028C48.0549 8.9277 48.7821 8.11553 49.7095 7.59342C50.637 7.07131 51.6487 6.78125 52.7817 6.78125C53.2718 6.78125 53.7355 6.83926 54.1413 6.95529C53.9094 6.92892 53.6512 6.89727 53.3877 6.89727C52.0282 6.89727 50.9268 7.50377 50.0837 8.66401C49.2721 9.79261 48.84 11.3009 48.84 13.1257C48.84 14.9504 49.2721 16.4324 50.0573 17.561C50.8688 18.7212 51.9122 19.3013 53.1875 19.3013Z" fill="#86868A"/>
<path d="M21.7426 15.6446L21.7267 15.6604V8.22959C21.7267 7.93426 21.6372 7.71803 21.4949 7.58091C21.379 7.46488 21.0891 7.34359 20.6254 7.24866L20.3672 7.19064L23.7239 6.9375L23.7345 11.1882C23.7345 12.8917 23.0178 14.5265 21.7426 15.6551V15.6446Z" fill="#86868A"/>
<path d="M39.7368 13.2453C39.7368 14.6745 38.9569 19.9114 33.6556 19.9114C33.1076 19.9114 32.6123 19.8534 32.1485 19.711C32.4384 19.769 32.7282 19.8007 33.018 19.8007C38.5933 19.8007 38.8199 11.2676 36.38 9.13698C33.9297 6.9958 31.5215 7.6814 29.7825 8.80473C28.9288 9.35321 28.2385 10.0072 27.7748 10.4871C27.7537 10.5029 27.7379 10.524 27.7221 10.5398C26.705 11.6051 25.1347 13.5828 24.2705 14.5796C23.9332 14.9698 23.7488 15.4709 23.7488 15.9877V17.6489V18.7512C23.7488 19.0254 23.7751 19.2206 23.8911 19.3999C24.007 19.5792 24.2389 19.6952 24.5867 19.8112C24.6446 19.8323 24.7289 19.8481 24.8501 19.8692H20.7082L20.9401 19.827C21.2563 19.7479 21.4618 19.6108 21.5777 19.4315C21.6673 19.2944 21.72 19.0993 21.72 18.8619V17.2745C18.0734 20.3333 15.1014 19.8007 14.1002 18.9516C13.3466 18.3135 12.9725 17.3589 12.9725 16.0246V8.83637C12.9725 8.37228 12.8882 8.08221 12.7722 7.88181C12.6563 7.6814 12.3665 7.53374 11.9027 7.39134L11.6445 7.30169L15.0329 6.92725V15.4761C15.0329 16.7208 15.3227 17.649 15.9287 18.3187C16.3977 18.8303 18.2631 19.479 20.3499 18.1025C20.7662 17.8283 21.2141 17.5066 21.7253 17.053C22.3049 16.5414 22.9636 15.8558 23.7383 14.8802C24.1282 14.3844 26.3414 11.8899 27.3058 10.2709C27.4375 10.0494 27.5535 9.82258 27.6378 9.58526C27.7221 9.34793 27.7748 9.10006 27.7748 8.84692C27.7748 8.57796 27.7432 8.35118 27.6799 8.17187C27.643 8.06112 27.5956 7.96619 27.5429 7.89236C27.427 7.71832 27.1372 7.54428 26.6734 7.40189L26.4152 7.31223L29.1449 7.00635L29.772 6.93779V7.9029C31.4424 6.7954 33.1445 6.46315 35.0257 6.82177C36.0639 7.0169 39.7368 7.87654 39.7368 13.2558V13.2453Z" fill="#86868A"/>
<path d="M30.8997 25.9906H26.7578L26.9897 25.9326C27.3058 25.8166 27.5114 25.6162 27.6273 25.3525C27.7169 25.1521 27.7696 24.862 27.7696 24.514V14.1034C27.7696 12.6162 28.502 11.2186 29.7509 10.4064C29.7615 10.4012 29.7668 10.3959 29.7773 10.3906L29.7984 24.3399C29.7984 24.746 29.83 25.0361 29.9406 25.2945C30.0566 25.5529 30.2884 25.7269 30.6362 25.9062C30.6942 25.9326 30.7785 25.9643 30.8944 25.9906H30.8997Z" fill="#86868A"/>
<path d="M43.5498 4.29123L41.99 4.44417C41.99 4.44417 41.8372 2.89894 41.832 2.88312C41.7898 2.45066 42.1007 2.07094 42.5328 2.02348C42.9544 1.98129 43.3285 2.2819 43.3865 2.69853V2.73017H43.4181C43.8344 2.70381 44.2033 3.01496 44.2454 3.43687C44.2876 3.86932 43.9714 4.24904 43.5446 4.2965L43.5498 4.29123Z" fill="#86868A"/>
<path d="M9.74139 9.31317C9.74139 9.91966 9.25131 10.4154 8.64004 10.4154C8.03404 10.4154 7.57031 9.92493 7.57031 9.31317C7.57031 8.7014 8.03404 8.21094 8.64004 8.21094C9.24604 8.21094 9.74139 8.7014 9.74139 9.31317Z" fill="#86868A"/>
</g>
<defs>
<clipPath id="clip0_3986_1138">
<rect width="59.752" height="26" fill="white"/>
</clipPath>
</defs>
</svg>
