<svg width="24" height="24" viewBox="0 0 24 24" fill="none" xmlns="http://www.w3.org/2000/svg">
    <path
        d="M12 3.04297C11.8392 3.04292 11.6784 3.06869 11.5254 3.11987L5.52539 5.11938C4.91189 5.32376 4.5 5.89598 4.5 6.54248V14.8701C4.5 16.378 5.24916 17.7776 6.50391 18.6143L10.5439 21.3074C10.9861 21.6021 11.493 21.7498 12 21.7498C12.507 21.7498 13.0139 21.6021 13.4561 21.3074L17.4961 18.6143C18.7508 17.7776 19.5 16.378 19.5 14.8701V6.54248C19.5 5.89598 19.0881 5.32413 18.4746 5.11938L12.4746 3.11987C12.3218 3.06887 12.1608 3.04302 12 3.04297ZM12 4.54443C12.0041 4.54443 12.0076 4.54477 12.0117 4.5459L17.9744 6.53369C17.9894 6.53894 18 6.55346 18 6.56958V14.8701C18 15.8732 17.4988 16.8101 16.6641 17.3662L12.624 20.0593C12.2449 20.3121 11.7551 20.3121 11.376 20.0593L7.33594 17.3662C6.50119 16.8101 6 15.8732 6 14.8701V6.56958C6 6.55346 6.01063 6.53894 6.02563 6.53369L11.9883 4.5459C11.992 4.54477 11.9959 4.54443 12 4.54443ZM15.3611 8.02637C15.1203 8.03099 14.8857 8.15114 14.7451 8.36841L11.1042 13.9883L9.18823 11.8101C8.91486 11.4992 8.44076 11.4686 8.12988 11.7427C7.81901 12.0161 7.78839 12.4898 8.06177 12.801L10.6326 15.7227C10.7758 15.885 10.9813 15.9775 11.1958 15.9775C11.2142 15.9775 11.2327 15.9765 11.2507 15.9753C11.4851 15.9581 11.6971 15.8324 11.825 15.6355L16.0042 9.18433C16.2295 8.8367 16.1306 8.37259 15.783 8.14722C15.6522 8.06284 15.5056 8.02359 15.3611 8.02637Z"
        fill="currentColor" />
</svg>