<svg xmlns="http://www.w3.org/2000/svg" width="44" height="44" viewBox="0 0 44 44" fill="none">
    <path
        d="M22 6.875C13.6469 6.875 6.875 13.6469 6.875 22C6.875 30.3531 13.6469 37.125 22 37.125C30.3531 37.125 37.125 30.3531 37.125 22C37.125 13.6469 30.3531 6.875 22 6.875ZM22 9.625C28.8344 9.625 34.375 15.1656 34.375 22C34.375 28.8344 28.8344 34.375 22 34.375C15.1656 34.375 9.625 28.8344 9.625 22C9.625 15.1656 15.1656 9.625 22 9.625ZM17.5312 17.875C16.5818 17.875 15.8125 18.7983 15.8125 19.9375C15.8125 21.0767 16.5818 22 17.5312 22C18.4807 22 19.25 21.0767 19.25 19.9375C19.25 18.7983 18.4807 17.875 17.5312 17.875ZM26.4688 17.875C25.5193 17.875 24.75 18.7983 24.75 19.9375C24.75 21.0767 25.5193 22 26.4688 22C27.4182 22 28.1875 21.0767 28.1875 19.9375C28.1875 18.7983 27.4182 17.875 26.4688 17.875ZM22 25.5919C18.4491 25.5919 15.9349 28.4184 16.641 29.3651C17.2274 30.1516 18.9626 28.3419 22 28.3419C25.0374 28.3419 26.7726 30.1516 27.359 29.3651C28.0651 28.4184 25.5509 25.5919 22 25.5919Z"
        fill="#85141B" />
</svg>