<svg xmlns="http://www.w3.org/2000/svg" width="24" height="24" viewBox="0 0 24 24" fill="none">
    <path
        d="M19.215 4.01594C19.0772 4.02002 18.939 4.06416 18.8186 4.15087C18.4979 4.38211 18.4252 4.8299 18.6564 5.15063C20.1362 7.20421 20.9181 9.63092 20.9181 12.1699C20.9181 14.4823 20.2607 16.728 19.0158 18.6627C18.8021 18.9953 18.8979 19.4379 19.2304 19.652C19.3503 19.7289 19.4846 19.7659 19.617 19.7659C19.8522 19.7659 20.0833 19.65 20.2197 19.4373C21.6135 17.271 22.3499 14.7575 22.3499 12.1699C22.3499 9.32881 21.4746 6.61185 19.8184 4.31307C19.6738 4.11284 19.4447 4.00914 19.215 4.01594ZM10.9464 4.45709C10.6141 4.4514 10.2854 4.5633 10.0152 4.78568L5.29883 8.66935H3.76634C2.77945 8.66935 1.97656 9.47224 1.97656 10.4591V14.3966C1.97656 15.3835 2.77945 16.1864 3.76634 16.1864H5.31351L10.0557 19.8128C10.312 20.0086 10.6162 20.1085 10.9233 20.1085C11.1392 20.1085 11.3566 20.0591 11.5595 19.9589C12.0514 19.7158 12.3572 19.224 12.3572 18.6753V5.89101C12.3572 5.33116 12.0426 4.83463 11.5365 4.59552C11.3467 4.50572 11.1458 4.46051 10.9464 4.45709ZM16.6884 6.03153C16.5506 6.03567 16.4124 6.07975 16.2919 6.16646C15.9712 6.39734 15.8985 6.84479 16.1297 7.16552C17.1682 8.60664 17.7175 10.3093 17.7175 12.0916C17.7175 13.7149 17.2552 15.2894 16.3821 16.6471C16.1684 16.9797 16.2649 17.423 16.5975 17.6371C16.7174 17.714 16.8516 17.7503 16.9841 17.7503C17.2193 17.7503 17.45 17.6344 17.586 17.4218C18.6084 15.8324 19.1486 13.9898 19.1486 12.0916C19.1486 10.0069 18.5066 8.01427 17.291 6.32866C17.1467 6.12843 16.918 6.02463 16.6884 6.03153ZM10.7353 6.09096C10.7707 6.0889 10.8057 6.09737 10.8359 6.11473C10.8878 6.14444 10.9254 6.20013 10.9254 6.26993V18.3131C10.9254 18.3826 10.8878 18.4376 10.8359 18.4677C10.7772 18.5013 10.6997 18.5027 10.6374 18.4551L5.99097 14.9014C5.86604 14.8058 5.71325 14.7546 5.55611 14.7546H3.76634C3.56874 14.7546 3.40838 14.5942 3.40838 14.3966V10.4591C3.40838 10.2615 3.56874 10.1012 3.76634 10.1012H5.55611C5.7222 10.1012 5.88309 10.0439 6.01124 9.93827L10.6325 6.13151C10.664 6.10555 10.6999 6.09302 10.7353 6.09096ZM14.5043 8.34565C14.4114 8.34976 14.3179 8.37166 14.2288 8.41417C13.8716 8.58419 13.7204 9.0116 13.8904 9.36848C14.2681 10.1613 14.4588 11.0123 14.4588 11.8986C14.4588 12.7792 14.2697 13.6258 13.8967 14.4155C13.7274 14.7727 13.8803 15.1995 14.2379 15.3684C14.3367 15.4149 14.4407 15.4369 14.5434 15.4369C14.8115 15.4369 15.0691 15.2857 15.1908 15.0272C15.6554 14.045 15.8906 12.9925 15.8906 11.8986C15.8906 10.7979 15.6531 9.73977 15.1831 8.75324C15.0556 8.48558 14.7829 8.33334 14.5043 8.34565Z"
        fill="currentColor" />
</svg>