<svg xmlns="http://www.w3.org/2000/svg" width="24" height="24" viewBox="0 0 24 24" fill="none">
    <path
        d="M10.6434 14.6521L15.29 18.2055C15.3523 18.2532 15.4296 18.2521 15.4883 18.2184C15.5402 18.1884 15.5778 18.1329 15.5778 18.0634V6.02042C15.5778 5.95062 15.5402 5.89513 15.4883 5.86542C15.4278 5.8307 15.348 5.83034 15.285 5.88225L10.6634 9.68838C10.5353 9.79397 10.3745 9.8516 10.2085 9.8516H8.41868C8.22109 9.8516 8.06072 10.012 8.06072 10.2096V14.1471C8.06072 14.3447 8.22109 14.505 8.41868 14.505H10.2085C10.3656 14.505 10.5184 14.5566 10.6434 14.6521ZM6.62891 10.2096C6.62891 9.22268 7.4318 8.41979 8.41868 8.41979H9.95144L14.6675 4.53598C15.0999 4.18017 15.6827 4.10679 16.1888 4.34626C16.6949 4.58538 17.0096 5.0815 17.0096 5.64134V18.4257C17.0096 18.9744 16.7039 19.4663 16.2121 19.7093C16.0091 19.8095 15.7918 19.8589 15.576 19.8589C15.2689 19.8589 14.9642 19.7587 14.7079 19.5629L9.96612 15.9368H8.41868C7.4318 15.9368 6.62891 15.1339 6.62891 14.1471V10.2096Z"
        fill="white" />
</svg>