<svg xmlns="http://www.w3.org/2000/svg" width="24" height="24" viewBox="0 0 24 24">
    <path
        d="M11.0855 1.53157C11.3955 0.577351 12.7455 0.577352 13.0555 1.53157L15.0934 7.80359C15.2321 8.23033 15.6298 8.51925 16.0785 8.51925L22.6733 8.51925C23.6766 8.51925 24.0938 9.80315 23.2821 10.3929L17.9468 14.2692C17.5838 14.5329 17.4319 15.0004 17.5705 15.4272L19.6084 21.6992C19.9185 22.6534 18.8263 23.4469 18.0146 22.8571L12.6793 18.9808C12.3163 18.7171 11.8247 18.7171 11.4617 18.9808L6.12634 22.8571C5.31463 23.4469 4.22248 22.6534 4.53253 21.6992L6.57045 15.4272C6.70911 15.0004 6.55721 14.5329 6.1942 14.2692L0.858875 10.3929C0.0471613 9.80315 0.464322 8.51925 1.46765 8.51925L8.0625 8.51925C8.5112 8.51925 8.90887 8.23033 9.04753 7.80359L11.0855 1.53157Z" />
</svg>