<svg xmlns="http://www.w3.org/2000/svg" width="60" height="60" viewBox="0 0 60 60" fill="none">
    <path
        d="M30 9.375C41.3906 9.375 50.625 18.6094 50.625 30C50.625 41.3906 41.3906 50.625 30 50.625C18.6094 50.625 9.375 41.3906 9.375 30C9.375 18.6094 18.6094 9.375 30 9.375ZM40.0116 23.8931C40.575 23.0241 40.3266 21.8625 39.4575 21.3C38.5856 20.7375 37.4259 20.985 36.8634 21.8541L27.7612 35.9034L22.9706 30.4575C22.2872 29.6803 21.1013 29.6034 20.3241 30.2887C19.5469 30.9722 19.4709 32.1572 20.1544 32.9353L26.5809 40.2394C26.9391 40.6453 27.4528 40.8759 27.9891 40.8759C28.035 40.8759 28.0809 40.8741 28.1259 40.8713C28.7119 40.8281 29.2425 40.5131 29.5622 40.0209L40.0116 23.8931Z"
        fill="#10C300" />
</svg>