<svg width="52" height="52" viewBox="0 0 52 52" fill="none" xmlns="http://www.w3.org/2000/svg">
<rect width="51.9999" height="52" rx="16" fill="url(#paint0_angular_3665_2554)"/>
<path d="M31.5329 32.75C30.7679 32.75 30.0794 32.6112 29.4674 32.3335C28.8554 32.0502 28.3341 31.6393 27.9034 31.101C27.4784 30.5627 27.1526 29.8968 26.9259 29.1035C26.6993 28.3102 26.5859 27.4007 26.5859 26.375C26.5859 25.3493 26.6993 24.4398 26.9259 23.6465C27.1526 22.8532 27.4784 22.1873 27.9034 21.649C28.3341 21.1107 28.8554 20.7027 29.4674 20.425C30.0794 20.1417 30.7679 20 31.5329 20C32.3036 20 32.9921 20.1417 33.5984 20.425C34.2104 20.7027 34.7289 21.1107 35.1539 21.649C35.5789 22.1873 35.9048 22.8532 36.1314 23.6465C36.3581 24.4398 36.4714 25.3493 36.4714 26.375C36.4714 27.4007 36.3581 28.3102 36.1314 29.1035C35.9048 29.8968 35.5789 30.5627 35.1539 31.101C34.7289 31.6393 34.2104 32.0502 33.5984 32.3335C32.9921 32.6112 32.3036 32.75 31.5329 32.75ZM31.5329 30.8205C31.9919 30.8205 32.3943 30.7185 32.7399 30.5145C33.0856 30.3105 33.3746 30.0158 33.6069 29.6305C33.8393 29.2452 34.0121 28.7777 34.1254 28.228C34.2444 27.6783 34.3039 27.0607 34.3039 26.375C34.3039 25.6837 34.2444 25.066 34.1254 24.522C34.0121 23.9723 33.8393 23.5048 33.6069 23.1195C33.3746 22.7342 33.0856 22.4395 32.7399 22.2355C32.3943 22.0315 31.9919 21.9295 31.5329 21.9295C31.0739 21.9295 30.6716 22.0315 30.3259 22.2355C29.9803 22.4395 29.6913 22.7342 29.4589 23.1195C29.2266 23.4992 29.0509 23.9638 28.9319 24.5135C28.8129 25.0632 28.7534 25.6837 28.7534 26.375C28.7534 27.0607 28.8101 27.6783 28.9234 28.228C29.0424 28.7777 29.2181 29.2452 29.4504 29.6305C29.6884 30.0102 29.9803 30.3048 30.3259 30.5145C30.6716 30.7185 31.0739 30.8205 31.5329 30.8205Z" fill="#E9E9E9"/>
<path d="M25.384 28.6944C25.384 29.3347 25.2707 29.9071 25.044 30.4114C24.823 30.9157 24.5113 31.3407 24.109 31.6864C23.7067 32.0321 23.2278 32.2956 22.6725 32.4769C22.1172 32.6582 21.508 32.7489 20.845 32.7489C20.2727 32.7489 19.7202 32.6752 19.1875 32.5279C18.6605 32.3862 18.1817 32.1596 17.751 31.8479C17.326 31.5306 16.9605 31.1282 16.6545 30.6409C16.3485 30.1479 16.1303 29.5586 16 28.8729L18.125 28.5499C18.1987 28.9069 18.3035 29.2271 18.4395 29.5104C18.5812 29.7881 18.7625 30.0261 18.9835 30.2244C19.2045 30.4171 19.4708 30.5672 19.7825 30.6749C20.0998 30.7769 20.4682 30.8279 20.8875 30.8279C21.2388 30.8279 21.559 30.7741 21.848 30.6664C22.137 30.5587 22.3835 30.4114 22.5875 30.2244C22.7915 30.0374 22.9502 29.8192 23.0635 29.5699C23.1768 29.3206 23.2335 29.0571 23.2335 28.7794C23.2335 28.1277 23.0238 27.6376 22.6045 27.3089C22.1852 26.9746 21.5987 26.8074 20.845 26.8074H19.4255V25.1584L22.3665 22.1749H16.6885V20.2539H24.8825V22.1749L21.8565 25.2094C23.0068 25.3341 23.8823 25.6854 24.483 26.2634C25.0837 26.8357 25.384 27.6461 25.384 28.6944Z" fill="#E9E9E9"/>
<circle cx="26" cy="26.0156" r="19.325" stroke="#E9E9E9" stroke-width="1.35"/>
<mask id="path-5-outside-1_3665_2554" maskUnits="userSpaceOnUse" x="41.835" y="21.4267" width="4.27596" height="3.37929" fill="black">
<rect fill="white" x="41.835" y="21.4267" width="4.27596" height="3.37929"/>
<path d="M42.9552 22.986L45.1047 22.7733L45.1449 23.1793L42.9954 23.392L42.9552 22.986Z"/>
</mask>
<path d="M42.9552 22.986L45.1047 22.7733L45.1449 23.1793L42.9954 23.392L42.9552 22.986Z" fill="#E9E9E9"/>
<path d="M42.9552 22.986L42.8961 22.3889L42.2991 22.448L42.3581 23.045L42.9552 22.986ZM45.1047 22.7733L45.7018 22.7142L45.6427 22.1171L45.0457 22.1762L45.1047 22.7733ZM45.1449 23.1793L45.204 23.7764L45.8011 23.7173L45.742 23.1202L45.1449 23.1793ZM42.9954 23.392L42.3983 23.4511L42.4574 24.0481L43.0545 23.9891L42.9954 23.392ZM43.0143 23.583L45.1638 23.3704L45.0457 22.1762L42.8961 22.3889L43.0143 23.583ZM44.5076 22.8324L44.5478 23.2384L45.742 23.1202L45.7018 22.7142L44.5076 22.8324ZM45.0858 22.5822L42.9363 22.7949L43.0545 23.9891L45.204 23.7764L45.0858 22.5822ZM43.5925 23.3329L43.5523 22.9269L42.3581 23.045L42.3983 23.4511L43.5925 23.3329Z" fill="#E9E9E9" mask="url(#path-5-outside-1_3665_2554)"/>
<mask id="path-7-outside-2_3665_2554" maskUnits="userSpaceOnUse" x="40.5257" y="30.3907" width="4.89208" height="4.40709" fill="black">
<rect fill="white" x="40.5257" y="30.3907" width="4.89208" height="4.40709"/>
<path d="M42.1621 31.964L44.1206 32.8749L43.9485 33.2449L41.99 32.3339L42.1621 31.964Z"/>
</mask>
<path d="M42.1621 31.964L44.1206 32.8749L43.9485 33.2449L41.99 32.3339L42.1621 31.964Z" fill="#E9E9E9"/>
<path d="M42.1621 31.964L42.4151 31.42L41.8711 31.1669L41.618 31.711L42.1621 31.964ZM44.1206 32.8749L44.6646 33.128L44.9177 32.5839L44.3736 32.3309L44.1206 32.8749ZM43.9485 33.2449L43.6955 33.7889L44.2395 34.0419L44.4925 33.4979L43.9485 33.2449ZM41.99 32.3339L41.446 32.0809L41.1929 32.6249L41.737 32.878L41.99 32.3339ZM41.909 32.508L43.8675 33.419L44.3736 32.3309L42.4151 31.42L41.909 32.508ZM43.5765 32.6219L43.4045 32.9918L44.4925 33.4979L44.6646 33.128L43.5765 32.6219ZM44.2016 32.7008L42.243 31.7899L41.737 32.878L43.6955 33.7889L44.2016 32.7008ZM42.534 32.587L42.7061 32.217L41.618 31.711L41.446 32.0809L42.534 32.587Z" fill="#E9E9E9" mask="url(#path-7-outside-2_3665_2554)"/>
<mask id="path-9-outside-3_3665_2554" maskUnits="userSpaceOnUse" x="34.9118" y="37.7533" width="4.73692" height="4.99558" fill="black">
<rect fill="white" x="34.9118" y="37.7533" width="4.73692" height="4.99558"/>
<path d="M36.9041 39.2964L38.1263 41.0774L37.7899 41.3082L36.5677 39.5273L36.9041 39.2964Z"/>
</mask>
<path d="M36.9041 39.2964L38.1263 41.0774L37.7899 41.3082L36.5677 39.5273L36.9041 39.2964Z" fill="#E9E9E9"/>
<path d="M36.9041 39.2964L37.3988 38.9569L37.0593 38.4622L36.5645 38.8017L36.9041 39.2964ZM38.1263 41.0774L38.4658 41.5721L38.9605 41.2326L38.621 40.7379L38.1263 41.0774ZM37.7899 41.3082L37.2952 41.6478L37.6347 42.1425L38.1294 41.803L37.7899 41.3082ZM36.5677 39.5273L36.2281 39.0326L35.7334 39.3721L36.0729 39.8668L36.5677 39.5273ZM36.4093 39.6359L37.6316 41.4169L38.621 40.7379L37.3988 38.9569L36.4093 39.6359ZM37.7868 40.5827L37.4504 40.8135L38.1294 41.803L38.4658 41.5721L37.7868 40.5827ZM38.2846 40.9687L37.0624 39.1878L36.0729 39.8668L37.2952 41.6478L38.2846 40.9687ZM36.9072 40.022L37.2436 39.7911L36.5645 38.8017L36.2281 39.0326L36.9072 40.022Z" fill="#E9E9E9" mask="url(#path-9-outside-3_3665_2554)"/>
<mask id="path-11-outside-4_3665_2554" maskUnits="userSpaceOnUse" x="26.8559" y="41.844" width="3.26289" height="4.19319" fill="black">
<rect fill="white" x="26.8559" y="41.844" width="3.26289" height="4.19319"/>
<path d="M28.6494 42.9274L28.7951 45.0825L28.388 45.11L28.2423 42.9549L28.6494 42.9274Z"/>
</mask>
<path d="M28.6494 42.9274L28.7951 45.0825L28.388 45.11L28.2423 42.9549L28.6494 42.9274Z" fill="#E9E9E9"/>
<path d="M28.6494 42.9274L29.2481 42.8869L29.2076 42.2883L28.609 42.3287L28.6494 42.9274ZM28.7951 45.0825L28.8355 45.6811L29.4342 45.6406L29.3937 45.042L28.7951 45.0825ZM28.388 45.11L27.7894 45.1504L27.8298 45.7491L28.4285 45.7086L28.388 45.11ZM28.2423 42.9549L28.2019 42.3563L27.6033 42.3967L27.6437 42.9953L28.2423 42.9549ZM28.0508 42.9678L28.1964 45.1229L29.3937 45.042L29.2481 42.8869L28.0508 42.9678ZM28.7546 44.4838L28.3475 44.5113L28.4285 45.7086L28.8355 45.6811L28.7546 44.4838ZM28.9866 45.0695L28.841 42.9144L27.6437 42.9953L27.7894 45.1504L28.9866 45.0695ZM28.2828 43.5535L28.6899 43.526L28.609 42.3287L28.2019 42.3563L28.2828 43.5535Z" fill="#E9E9E9" mask="url(#path-11-outside-4_3665_2554)"/>
<mask id="path-13-outside-5_3665_2554" maskUnits="userSpaceOnUse" x="16.8035" y="40.1802" width="4.47849" height="4.92188" fill="black">
<rect fill="white" x="16.8035" y="40.1802" width="4.47849" height="4.92188"/>
<path d="M19.698 41.8515L18.7265 43.7807L18.3621 43.5972L19.3336 41.668L19.698 41.8515Z"/>
</mask>
<path d="M19.698 41.8515L18.7265 43.7807L18.3621 43.5972L19.3336 41.668L19.698 41.8515Z" fill="#E9E9E9"/>
<path d="M19.698 41.8515L20.2339 42.1213L20.5037 41.5854L19.9678 41.3156L19.698 41.8515ZM18.7265 43.7807L18.4566 44.3166L18.9925 44.5864L19.2624 44.0505L18.7265 43.7807ZM18.3621 43.5972L17.8262 43.3273L17.5563 43.8632L18.0922 44.133L18.3621 43.5972ZM19.3336 41.668L19.6034 41.1321L19.0675 40.8622L18.7977 41.3981L19.3336 41.668ZM19.1621 41.5816L18.1906 43.5108L19.2624 44.0505L20.2339 42.1213L19.1621 41.5816ZM18.9964 43.2448L18.6319 43.0613L18.0922 44.133L18.4566 44.3166L18.9964 43.2448ZM18.898 43.867L19.8695 41.9378L18.7977 41.3981L17.8262 43.3273L18.898 43.867ZM19.0637 42.2038L19.4281 42.3874L19.9678 41.3156L19.6034 41.1321L19.0637 42.2038Z" fill="#E9E9E9" mask="url(#path-13-outside-5_3665_2554)"/>
<mask id="path-15-outside-6_3665_2554" maskUnits="userSpaceOnUse" x="9.08036" y="34.3757" width="4.98662" height="4.68479" fill="black">
<rect fill="white" x="9.08036" y="34.3757" width="4.98662" height="4.68479"/>
<path d="M12.5396 36.3718L10.7214 37.538L10.5012 37.1945L12.3193 36.0284L12.5396 36.3718Z"/>
</mask>
<path d="M12.5396 36.3718L10.7214 37.538L10.5012 37.1945L12.3193 36.0284L12.5396 36.3718Z" fill="#E9E9E9"/>
<path d="M12.5396 36.3718L12.8635 36.8768L13.3686 36.5529L13.0446 36.0478L12.5396 36.3718ZM10.7214 37.538L10.2164 37.8619L10.5403 38.3669L11.0454 38.043L10.7214 37.538ZM10.5012 37.1945L10.1772 36.6895L9.67218 37.0134L9.99612 37.5185L10.5012 37.1945ZM12.3193 36.0284L12.8243 35.7044L12.5004 35.1994L11.9954 35.5233L12.3193 36.0284ZM12.2156 35.8667L10.3975 37.0329L11.0454 38.043L12.8635 36.8768L12.2156 35.8667ZM11.2265 37.214L11.0062 36.8706L9.99612 37.5185L10.2164 37.8619L11.2265 37.214ZM10.8251 37.6996L12.6432 36.5334L11.9954 35.5233L10.1772 36.6895L10.8251 37.6996ZM11.8143 36.3523L12.0345 36.6957L13.0446 36.0478L12.8243 35.7044L11.8143 36.3523Z" fill="#E9E9E9" mask="url(#path-15-outside-6_3665_2554)"/>
<mask id="path-17-outside-7_3665_2554" maskUnits="userSpaceOnUse" x="6.10703" y="26.2466" width="4.10634" height="3.14333" fill="black">
<rect fill="white" x="6.10703" y="26.2466" width="4.10634" height="3.14333"/>
<path d="M9.1679 28.0118L7.00932 28.0903L6.9945 27.6826L9.15308 27.6041L9.1679 28.0118Z"/>
</mask>
<path d="M9.1679 28.0118L7.00932 28.0903L6.9945 27.6826L9.15308 27.6041L9.1679 28.0118Z" fill="#E9E9E9"/>
<path d="M9.1679 28.0118L9.1897 28.6114L9.7893 28.5896L9.7675 27.99L9.1679 28.0118ZM7.00932 28.0903L6.40972 28.1121L6.43152 28.7117L7.03112 28.6899L7.00932 28.0903ZM6.9945 27.6826L6.97271 27.083L6.3731 27.1047L6.3949 27.7044L6.9945 27.6826ZM9.15308 27.6041L9.75268 27.5823L9.73088 26.9827L9.13128 27.0045L9.15308 27.6041ZM9.1461 27.4122L6.98753 27.4907L7.03112 28.6899L9.1897 28.6114L9.1461 27.4122ZM7.60893 28.0685L7.59411 27.6608L6.3949 27.7044L6.40972 28.1121L7.60893 28.0685ZM7.0163 28.2822L9.17487 28.2037L9.13128 27.0045L6.97271 27.083L7.0163 28.2822ZM8.55347 27.6259L8.56829 28.0336L9.7675 27.99L9.75268 27.5823L8.55347 27.6259Z" fill="#E9E9E9" mask="url(#path-17-outside-7_3665_2554)"/>
<mask id="path-19-outside-8_3665_2554" maskUnits="userSpaceOnUse" x="7.27264" y="16.1449" width="4.94691" height="4.54556" fill="black">
<rect fill="white" x="7.27264" y="16.1449" width="4.94691" height="4.54556"/>
<path d="M10.515 19.0972L8.617 18.0661L8.81176 17.7076L10.7098 18.7386L10.515 19.0972Z"/>
</mask>
<path d="M10.515 19.0972L8.617 18.0661L8.81176 17.7076L10.7098 18.7386L10.515 19.0972Z" fill="#E9E9E9"/>
<path d="M10.515 19.0972L10.2286 19.6244L10.7558 19.9108L11.0422 19.3836L10.515 19.0972ZM8.617 18.0661L8.08978 17.7797L7.80336 18.3069L8.33059 18.5933L8.617 18.0661ZM8.81176 17.7076L9.09818 17.1803L8.57095 16.8939L8.28454 17.4211L8.81176 17.7076ZM10.7098 18.7386L11.237 19.0251L11.5234 18.4978L10.9962 18.2114L10.7098 18.7386ZM10.8014 18.5699L8.90342 17.5388L8.33059 18.5933L10.2286 19.6244L10.8014 18.5699ZM9.14423 18.3525L9.33899 17.994L8.28454 17.4211L8.08978 17.7797L9.14423 18.3525ZM8.52535 18.2348L10.4234 19.2659L10.9962 18.2114L9.09818 17.1803L8.52535 18.2348ZM10.1826 18.4522L9.98779 18.8107L11.0422 19.3836L11.237 19.0251L10.1826 18.4522Z" fill="#E9E9E9" mask="url(#path-19-outside-8_3665_2554)"/>
<mask id="path-21-outside-9_3665_2554" maskUnits="userSpaceOnUse" x="13.595" y="8.64502" width="4.6281" height="4.97281" fill="black">
<rect fill="white" x="13.595" y="8.64502" width="4.6281" height="4.97281"/>
<path d="M16.2251 12.1077L15.1161 10.2541L15.4662 10.0446L16.5752 11.8982L16.2251 12.1077Z"/>
</mask>
<path d="M16.2251 12.1077L15.1161 10.2541L15.4662 10.0446L16.5752 11.8982L16.2251 12.1077Z" fill="#E9E9E9"/>
<path d="M16.2251 12.1077L15.7102 12.4157L16.0183 12.9306L16.5332 12.6225L16.2251 12.1077ZM15.1161 10.2541L14.808 9.7392L14.2932 10.0473L14.6012 10.5621L15.1161 10.2541ZM15.4662 10.0446L15.9811 9.73655L15.673 9.22167L15.1582 9.52972L15.4662 10.0446ZM16.5752 11.8982L16.8833 12.4131L17.3982 12.105L17.0901 11.5901L16.5752 11.8982ZM16.74 11.7996L15.631 9.94603L14.6012 10.5621L15.7102 12.4157L16.74 11.7996ZM15.4242 10.769L15.7743 10.5595L15.1582 9.52972L14.808 9.7392L15.4242 10.769ZM14.9513 10.3527L16.0603 12.2062L17.0901 11.5901L15.9811 9.73655L14.9513 10.3527ZM16.2672 11.3833L15.917 11.5928L16.5332 12.6225L16.8833 12.4131L16.2672 11.3833Z" fill="#E9E9E9" mask="url(#path-21-outside-9_3665_2554)"/>
<path d="M25.269 8.57581L25.2578 6.74609L25.6658 6.7443L25.677 8.57402L25.269 8.57581Z" fill="#E9E9E9"/>
<path fill-rule="evenodd" clip-rule="evenodd" d="M24.6737 9.08841L24.6562 6.24219L26.2642 6.23512L26.2817 9.08134L24.6737 9.08841ZM25.2594 6.7478L25.2706 8.57752L25.6786 8.57573L25.6674 6.74601L25.2594 6.7478Z" fill="#E9E9E9"/>
<mask id="path-25-outside-10_3665_2554" maskUnits="userSpaceOnUse" x="31.9507" y="7.39786" width="4.60821" height="4.96714" fill="black">
<rect fill="white" x="31.9507" y="7.39786" width="4.60821" height="4.96714"/>
<path d="M33.5517 10.6288L34.6414 8.76383L34.9937 8.96966L33.904 10.8346L33.5517 10.6288Z"/>
</mask>
<path d="M33.5517 10.6288L34.6414 8.76383L34.9937 8.96966L33.904 10.8346L33.5517 10.6288Z" fill="#E9E9E9"/>
<path d="M33.5517 10.6288L33.0336 10.3261L32.7309 10.8442L33.249 11.1469L33.5517 10.6288ZM34.6414 8.76383L34.9441 8.24578L34.426 7.94308L34.1233 8.46113L34.6414 8.76383ZM34.9937 8.96966L35.5117 9.27235L35.8144 8.7543L35.2964 8.45161L34.9937 8.96966ZM33.904 10.8346L33.6013 11.3527L34.1193 11.6554L34.422 11.1373L33.904 10.8346ZM34.0697 10.9315L35.1594 9.06652L34.1233 8.46113L33.0336 10.3261L34.0697 10.9315ZM34.3387 9.28188L34.691 9.48771L35.2964 8.45161L34.9441 8.24578L34.3387 9.28188ZM34.4756 8.66697L33.3859 10.5319L34.422 11.1373L35.5117 9.27235L34.4756 8.66697ZM34.2067 10.3166L33.8544 10.1108L33.249 11.1469L33.6013 11.3527L34.2067 10.3166Z" fill="#E9E9E9" mask="url(#path-25-outside-10_3665_2554)"/>
<mask id="path-27-outside-11_3665_2554" maskUnits="userSpaceOnUse" x="38.8625" y="13.9779" width="4.95419" height="4.56693" fill="black">
<rect fill="white" x="38.8625" y="13.9779" width="4.95419" height="4.56693"/>
<path d="M40.354 16.5468L42.2412 15.4961L42.4397 15.8526L40.5524 16.9033L40.354 16.5468Z"/>
</mask>
<path d="M40.354 16.5468L42.2412 15.4961L42.4397 15.8526L40.5524 16.9033L40.354 16.5468Z" fill="#E9E9E9"/>
<path d="M40.354 16.5468L40.0621 16.0226L39.5379 16.3145L39.8297 16.8387L40.354 16.5468ZM42.2412 15.4961L42.7654 15.2042L42.4735 14.68L41.9493 14.9719L42.2412 15.4961ZM42.4397 15.8526L42.7315 16.3768L43.2557 16.0849L42.9639 15.5607L42.4397 15.8526ZM40.5524 16.9033L40.0282 17.1952L40.3201 17.7194L40.8443 17.4275L40.5524 16.9033ZM40.6458 17.071L42.5331 16.0203L41.9493 14.9719L40.0621 16.0226L40.6458 17.071ZM41.717 15.788L41.9154 16.1444L42.9639 15.5607L42.7654 15.2042L41.717 15.788ZM42.1478 15.3283L40.2606 16.3791L40.8443 17.4275L42.7315 16.3768L42.1478 15.3283ZM41.0767 16.6114L40.8782 16.255L39.8297 16.8387L40.0282 17.1952L41.0767 16.6114Z" fill="#E9E9E9" mask="url(#path-27-outside-11_3665_2554)"/>
<path d="M37.8579 42.1212C41.3583 39.544 43.9238 35.8965 45.166 31.731C46.4081 27.5655 46.2594 23.1087 44.7423 19.0352C43.2252 14.9617 40.4222 11.4935 36.7578 9.15534C33.0934 6.81723 28.767 5.73661 24.4336 6.07706L24.7018 9.49145C28.2932 9.2093 31.8787 10.1049 34.9156 12.0426C37.9525 13.9803 40.2754 16.8547 41.5328 20.2306C42.7901 23.6065 42.9134 27.3001 41.8839 30.7523C40.8544 34.2045 38.7283 37.2273 35.8273 39.3632L37.8579 42.1212Z" fill="url(#paint1_angular_3665_2554)"/>
<defs>
<radialGradient id="paint0_angular_3665_2554" cx="0" cy="0" r="1" gradientUnits="userSpaceOnUse" gradientTransform="translate(25.9999 26) rotate(-89.9999) scale(26 25.9999)">
<stop stop-color="#520C11"/>
<stop offset="1" stop-color="#93151E"/>
</radialGradient>
<radialGradient id="paint1_angular_3665_2554" cx="0" cy="0" r="1" gradientUnits="userSpaceOnUse" gradientTransform="translate(26 26.0156) rotate(53.2573) scale(20.0594)">
<stop offset="0.0922131" stop-color="white"/>
<stop offset="0.567213" stop-color="white" stop-opacity="0"/>
</radialGradient>
</defs>
</svg>
