<svg xmlns="http://www.w3.org/2000/svg"  viewBox="0 0 64 64" width="50px" height="50px"><path d="M 52.158203 9 C 51.773189 9.0113965 51.387156 9.1347031 51.050781 9.3769531 C 50.154781 10.022953 49.951656 11.273922 50.597656 12.169922 C 54.731656 17.906922 56.916016 24.686297 56.916016 31.779297 C 56.916016 38.239297 55.079563 44.512969 51.601562 49.917969 C 51.004563 50.846969 51.272172 52.083641 52.201172 52.681641 C 52.536172 52.896641 52.91125 53 53.28125 53 C 53.93825 53 54.583844 52.676031 54.964844 52.082031 C 58.858844 46.030031 60.916016 39.008297 60.916016 31.779297 C 60.916016 23.842297 58.47075 16.252078 53.84375 9.8300781 C 53.44 9.2707031 52.799893 8.9810059 52.158203 9 z M 29.058594 10.232422 C 28.130254 10.216514 27.212031 10.529141 26.457031 11.150391 L 13.28125 22 L 9 22 C 6.243 22 4 24.243 4 27 L 4 38 C 4 40.757 6.243 43 9 43 L 13.322266 43 L 26.570312 53.130859 C 27.286312 53.677859 28.136141 53.957031 28.994141 53.957031 C 29.597141 53.957031 30.204484 53.819063 30.771484 53.539062 C 32.145484 52.860062 33 51.486125 33 49.953125 L 33 14.238281 C 33 12.674281 32.121031 11.287141 30.707031 10.619141 C 30.176781 10.368266 29.615598 10.241967 29.058594 10.232422 z M 45.099609 14.630859 C 44.714648 14.642432 44.328562 14.765562 43.992188 15.007812 C 43.096188 15.652812 42.893062 16.902828 43.539062 17.798828 C 46.440063 21.824828 47.974609 26.581547 47.974609 31.560547 C 47.974609 36.095547 46.683141 40.494109 44.244141 44.287109 C 43.647141 45.216109 43.916703 46.454734 44.845703 47.052734 C 45.180703 47.267734 45.555781 47.369141 45.925781 47.369141 C 46.582781 47.369141 47.227422 47.045172 47.607422 46.451172 C 50.463422 42.011172 51.972656 36.863547 51.972656 31.560547 C 51.972656 25.736547 50.179203 20.169937 46.783203 15.460938 C 46.380078 14.901563 45.741211 14.611572 45.099609 14.630859 z M 28.46875 14.796875 C 28.567625 14.791125 28.6655 14.814781 28.75 14.863281 C 28.895 14.946281 29 15.101875 29 15.296875 L 29 48.941406 C 29 49.135406 28.895 49.289047 28.75 49.373047 C 28.586 49.467047 28.369312 49.470891 28.195312 49.337891 L 15.214844 39.410156 C 14.865844 39.143156 14.439 39 14 39 L 9 39 C 8.448 39 8 38.552 8 38 L 8 27 C 8 26.448 8.448 26 9 26 L 14 26 C 14.464 26 14.913484 25.839922 15.271484 25.544922 L 28.181641 14.910156 C 28.269641 14.837656 28.369875 14.802625 28.46875 14.796875 z M 38.998047 21.095703 C 38.738625 21.107172 38.477516 21.168359 38.228516 21.287109 C 37.230516 21.762109 36.808203 22.956125 37.283203 23.953125 C 38.338203 26.168125 38.871094 28.545484 38.871094 31.021484 C 38.871094 33.481484 38.342781 35.846734 37.300781 38.052734 C 36.827781 39.050734 37.254906 40.242844 38.253906 40.714844 C 38.529906 40.844844 38.820422 40.90625 39.107422 40.90625 C 39.856422 40.90625 40.576016 40.483719 40.916016 39.761719 C 42.214016 37.017719 42.871094 34.077484 42.871094 31.021484 C 42.871094 27.946484 42.207531 24.990375 40.894531 22.234375 C 40.538281 21.486625 39.776313 21.061297 38.998047 21.095703 z"/></svg>