<svg xmlns="http://www.w3.org/2000/svg"  viewBox="0 0 64 64" width="50px" height="50px"><path d="M28.215,39.411l12.981,9.927c0.174,0.133,0.39,0.13,0.554,0.036C41.895,49.29,42,49.135,42,48.941V15.297	c0-0.195-0.105-0.35-0.25-0.433c-0.169-0.097-0.392-0.098-0.568,0.047L28.271,25.544C27.913,25.839,27.464,26,27,26h-5	c-0.552,0-1,0.448-1,1v11c0,0.552,0.448,1,1,1h5C27.439,39,27.866,39.144,28.215,39.411z M17,27c0-2.757,2.243-5,5-5h4.282	l13.175-10.85c1.208-0.994,2.836-1.199,4.25-0.53C45.121,11.288,46,12.674,46,14.238v35.715c0,1.533-0.854,2.907-2.228,3.586	c-0.567,0.28-1.174,0.418-1.777,0.418c-0.858,0-1.709-0.28-2.425-0.827L26.323,43H22c-2.757,0-5-2.243-5-5V27z"/></svg>