<svg xmlns="http://www.w3.org/2000/svg"  viewBox="0 0 64 64" width="50px" height="50px"><path d="M 32 10 C 19.85 10 10 19.85 10 32 C 10 44.15 19.85 54 32 54 C 44.15 54 54 44.15 54 32 C 54 19.85 44.15 10 32 10 z M 30 14.669922 L 30 24 L 24.886719 24 C 25.972457 19.35305 27.925647 16.01517 30 14.669922 z M 34 14.669922 C 36.074353 16.01517 38.027543 19.35305 39.113281 24 L 34 24 L 34 14.669922 z M 23.669922 16.050781 C 22.416385 18.248916 21.434728 20.950663 20.802734 24 L 15.892578 24 C 17.584861 20.600051 20.309615 17.80963 23.669922 16.050781 z M 40.330078 16.050781 C 43.690385 17.80963 46.415139 20.600051 48.107422 24 L 43.197266 24 C 42.565272 20.950663 41.583615 18.248916 40.330078 16.050781 z M 14.460938 28 L 20.201172 28 C 20.075994 29.296385 20 30.627878 20 32 C 20 33.372122 20.075994 34.703615 20.201172 36 L 14.460938 36 C 14.168156 34.711757 14 33.37686 14 32 C 14 30.62314 14.168156 29.288243 14.460938 28 z M 24.212891 28 L 30 28 L 30 36 L 24.212891 36 C 24.077897 34.726849 24 33.393633 24 32 C 24 30.606367 24.077897 29.273151 24.212891 28 z M 34 28 L 39.787109 28 C 39.922103 29.273151 40 30.606367 40 32 C 40 33.393633 39.922103 34.726849 39.787109 36 L 34 36 L 34 28 z M 43.798828 28 L 49.539062 28 C 49.831844 29.288243 50 30.62314 50 32 C 50 33.37686 49.831844 34.711757 49.539062 36 L 43.798828 36 C 43.924006 34.703615 44 33.372122 44 32 C 44 30.627878 43.924006 29.296385 43.798828 28 z M 15.892578 40 L 20.802734 40 C 21.434728 43.049337 22.416385 45.751084 23.669922 47.949219 C 20.309615 46.19037 17.584861 43.399949 15.892578 40 z M 24.886719 40 L 30 40 L 30 49.330078 C 27.925647 47.98483 25.972457 44.64695 24.886719 40 z M 34 40 L 39.113281 40 C 38.027543 44.64695 36.074353 47.98483 34 49.330078 L 34 40 z M 43.197266 40 L 48.107422 40 C 46.415139 43.399949 43.690385 46.19037 40.330078 47.949219 C 41.583615 45.751084 42.565272 43.049337 43.197266 40 z"/></svg>